# xmcd CD database file
#
# Track frame offsets:
#	150
#	18910
#	37267
#	57650
#	79322
#	103592
#	122377
#	143790
#	162772
#	194045
#	212380
#
# Disc length: 3149 seconds
#
# Revision: 0
# Processed by: cddbd v1.5.1PL0 Copyright (c) Steve Scherf et al.
# Submitted via: CDex 1.51
#
DISCID=980c4b0b
DTITLE=下川 みくに - Review
DYEAR=2003
DGENRE=Pop
TTITLE0=想い出がいっぱい
TTITLE1=残酷な天使のテーゼ
TTITLE2=輪舞〜ｒｅｖｏｌｕｔｉｏｎ〜
TTITLE3=ＥＴＥＲＮＡＬ　ＷＩＮＤ〜ほほえみは光る風の中〜
TTITLE4=愛・おぼえていますか
TTITLE5=ＬＯＶＥ　ＳＯＮＧ
TTITLE6=ＫＵＪＩＫＥＮＡＩＫＡＲＡ！
TTITLE7=ブルーウォーター
TTITLE8=ＧｏｏＤ　ＬｕｃＫ
TTITLE9=夢光年
TTITLE10=Ａｌｏｎｅ
EXTD=YEAR: 2003
EXTT0=
EXTT1=
EXTT2=
EXTT3=
EXTT4=
EXTT5=
EXTT6=
EXTT7=
EXTT8=
EXTT9=
EXTT10=
PLAYORDER=
